<?xml version="1.0" encoding="utf-8"?>
<!-- Generator: Adobe Illustrator 27.5.0, SVG Export Plug-In . SVG Version: 6.00 Build 0)  -->
<svg version="1.1" xmlns="http://www.w3.org/2000/svg" xmlns:xlink="http://www.w3.org/1999/xlink" x="0px" y="0px"
	 viewBox="0 0 500 500" style="enable-background:new 0 0 500 500;" xml:space="preserve">
<g id="BACKGROUND">
	<path style="fill:#FDEDEE;" d="M122.831,418.113H34.596c0,0-33.792-146.433,64.769-171.778s21.59-136.995,126.721-182.103
		c105.132-45.108,238.423,38.486,247.81,132.353c9.387,93.867-15.958,217.773-15.958,217.773L122.831,418.113z"/>
</g>
<g id="OBJECTS">
	<g>
		<g>
			<g>
				<g>
					<g>
						<path style="fill:#352C38;" d="M298.848,240.117c0,0-15.586-24.418-39.484-22.859c-23.898,1.559-14.547,27.015-40.523,18.703
							c-25.976-8.312-54.514,19.31-41.562,50.914c12.988,31.691,31.172,28.054,26.496,41.562
							c-7.099,20.508-20.261,22.34,7.273,46.238c27.535,23.898,92.995-4.676,98.71-43.64S298.848,240.117,298.848,240.117z"/>
						<g>
							<path style="fill:#352C38;" d="M297.679,243.241c0,0-0.519-0.985-1.655-2.73c-1.133-1.745-2.896-4.246-5.429-7.182
								c-2.54-2.917-5.883-6.288-10.321-9.328c-4.413-3.021-10.031-5.683-16.563-6.451c-3.246-0.371-6.721-0.394-10.084,0.511
								c-3.38,0.868-6.475,2.843-9.023,5.565c-1.295,1.345-2.492,2.84-3.758,4.355c-1.267,1.508-2.618,3.057-4.311,4.347
								c-0.847,0.639-1.782,1.199-2.787,1.63c-1.009,0.423-2.084,0.699-3.17,0.84c-2.182,0.283-4.371,0.015-6.463-0.478
								c-2.093-0.488-4.139-1.249-6.087-2.067c-1.001-0.408-1.923-0.767-2.919-1.063c-0.986-0.313-1.994-0.558-3.013-0.768
								c-4.08-0.818-8.374-0.78-12.533,0.09c-8.336,1.733-16.043,6.79-21.151,13.76c-2.588,3.461-4.528,7.397-5.72,11.535
								c-1.18,4.143-1.607,8.478-1.307,12.738c0.143,2.13,0.457,4.242,0.922,6.313c0.239,1.031,0.511,2.063,0.806,3.066
								c0.314,1.038,0.634,2.052,0.968,3.052c1.35,4.027,2.948,7.914,4.788,11.603c1.833,3.695,3.933,7.172,6.146,10.476
								c2.214,3.307,4.606,6.392,6.889,9.478c1.135,1.548,2.244,3.102,3.194,4.756c0.946,1.646,1.734,3.429,2.019,5.332
								c0.292,1.9,0.006,3.836-0.647,5.525c-0.327,0.865-0.713,1.632-1.1,2.4c-0.39,0.777-0.802,1.519-1.226,2.251
								c-1.698,2.925-3.708,5.489-5.734,7.766c-1.007,1.144-2.01,2.228-2.876,3.34c-0.856,1.111-1.574,2.277-1.815,3.527
								c-0.264,1.246-0.04,2.517,0.361,3.673c0.41,1.16,0.975,2.229,1.574,3.221c1.207,1.984,2.515,3.694,3.722,5.211
								c2.438,3.02,4.471,5.304,5.859,6.856c1.4,1.543,2.147,2.365,2.147,2.365s-0.775-0.796-2.23-2.289
								c-1.436-1.509-3.572-3.699-6.089-6.676c-1.253-1.492-2.613-3.175-3.897-5.165c-0.637-0.996-1.249-2.079-1.716-3.295
								c-0.456-1.208-0.753-2.611-0.491-4.043c0.24-1.436,1.009-2.737,1.869-3.915c0.872-1.182,1.854-2.298,2.824-3.461
								c1.95-2.311,3.877-4.82,5.479-7.696c0.4-0.716,0.794-1.453,1.155-2.202c0.366-0.757,0.739-1.534,1.011-2.297
								c0.568-1.552,0.781-3.23,0.502-4.887c-0.275-1.66-1.005-3.274-1.929-4.822c-0.924-1.552-2.029-3.054-3.177-4.566
								c-2.308-3.018-4.779-6.099-7.082-9.423c-2.321-3.31-4.448-6.875-6.351-10.63c-1.9-3.757-3.551-7.717-4.949-11.813
								c-0.35-1.031-0.683-2.067-0.999-3.092c-0.321-1.064-0.605-2.122-0.861-3.202c-0.497-2.158-0.838-4.366-1-6.6
								c-0.338-4.467,0.084-9.039,1.309-13.422c1.236-4.376,3.262-8.553,5.985-12.224c5.444-7.341,13.592-12.629,22.428-14.42
								c4.409-0.899,8.969-0.916,13.296-0.024c1.08,0.228,2.149,0.495,3.193,0.831c1.046,0.316,2.103,0.734,3.058,1.13
								c1.946,0.829,3.851,1.544,5.816,2.015c1.95,0.473,3.934,0.713,5.823,0.475c1.891-0.223,3.645-0.957,5.164-2.079
								c3.049-2.273,5.233-5.65,8.002-8.395c1.372-1.388,2.881-2.649,4.536-3.638c1.652-0.99,3.429-1.718,5.231-2.161
								c3.619-0.906,7.22-0.813,10.567-0.379c3.359,0.46,6.506,1.374,9.322,2.619c2.816,1.249,5.322,2.762,7.536,4.358
								c4.43,3.209,7.708,6.697,10.187,9.699c2.482,3.013,4.136,5.601,5.216,7.382C297.195,242.239,297.679,243.241,297.679,243.241
								z"/>
						</g>
						<g>
							<path style="fill:#352C38;" d="M290.529,246.646c0,0-0.002-0.691-0.085-2.012c-0.085-1.32-0.245-3.26-0.605-5.71
								c-0.36-2.448-0.912-5.41-1.847-8.725c-0.944-3.305-2.26-6.986-4.315-10.671c-2.046-3.668-4.881-7.37-8.794-10.165
								c-3.883-2.819-8.851-4.515-14.108-4.775c-2.619-0.137-5.34,0.016-8.04,0.308c-1.348,0.158-2.699,0.376-3.991,0.743
								c-0.641,0.187-1.273,0.413-1.822,0.722c-0.548,0.3-1.005,0.728-1.059,1.141c-0.077,0.406,0.231,0.94,0.687,1.369
								c0.453,0.436,1.015,0.807,1.607,1.122c1.192,0.628,2.514,1.068,3.856,1.308c1.33,0.227,2.754,0.281,3.928-0.179
								c0.578-0.232,1.047-0.612,1.294-1.131c0.257-0.515,0.292-1.161,0.205-1.804c-0.185-1.302-0.795-2.587-1.471-3.797
								c-0.687-1.21-1.501-2.383-2.34-3.487c-1.708-2.239-3.758-4.159-6.181-5.474c-2.41-1.32-5.141-1.954-7.844-1.961
								c-2.71-0.016-5.379,0.539-7.891,1.377c-5.039,1.704-9.49,4.44-13.447,7.3c-3.952,2.891-7.431,5.973-10.458,8.994
								c-2.838,3.191-5.999,5.736-9.261,7.029c-1.622,0.637-3.313,0.904-4.807,0.577c-1.501-0.313-2.678-1.194-3.488-2.139
								c-1.615-1.941-2.187-3.896-2.589-5.154c-0.376-1.286-0.511-1.988-0.511-1.988s0.142,0.701,0.528,1.983
								c0.412,1.253,1.004,3.202,2.624,5.114c0.812,0.931,1.981,1.787,3.458,2.082c1.471,0.308,3.133,0.032,4.732-0.611
								c3.22-1.317,6.33-3.842,9.132-7.074c3-3.066,6.452-6.198,10.391-9.152c3.946-2.923,8.393-5.736,13.502-7.533
								c2.548-0.884,5.276-1.489,8.086-1.506c2.801-0.027,5.676,0.601,8.221,1.957c2.549,1.338,4.743,3.359,6.505,5.615
								c0.895,1.15,1.724,2.315,2.463,3.577c0.719,1.262,1.395,2.594,1.639,4.13c0.11,0.759,0.1,1.608-0.271,2.389
								c-0.358,0.79-1.084,1.361-1.825,1.653c-1.509,0.585-3.054,0.49-4.505,0.26c-1.457-0.256-2.865-0.714-4.181-1.399
								c-0.656-0.348-1.291-0.754-1.859-1.294c-0.282-0.272-0.548-0.582-0.754-0.965c-0.204-0.377-0.338-0.864-0.262-1.357
								c0.188-1.019,0.963-1.563,1.598-1.938c0.671-0.38,1.365-0.625,2.058-0.832c1.389-0.4,2.784-0.628,4.169-0.798
								c2.774-0.311,5.508-0.479,8.239-0.35c5.443,0.242,10.677,1.993,14.763,4.935c4.118,2.915,7.083,6.763,9.211,10.54
								c2.138,3.797,3.5,7.563,4.481,10.937c0.971,3.383,1.546,6.399,1.924,8.892c0.377,2.494,0.549,4.471,0.642,5.822
								c0.091,1.351,0.097,2.089,0.097,2.089L290.529,246.646z"/>
						</g>
						<g>
							<path style="fill:#352C38;" d="M248.451,148.787c0,0-0.166,0.407-0.422,1.189c-0.253,0.783-0.599,1.941-0.909,3.445
								c-0.304,1.502-0.584,3.355-0.567,5.488c0.02,2.118,0.358,4.568,1.559,6.885c1.182,2.316,3.379,4.319,6.163,5.384
								c1.375,0.541,2.888,0.923,4.409,1.359c1.526,0.43,3.086,0.869,4.671,1.315c3.159,0.934,6.46,1.875,9.6,3.498
								c1.536,0.836,3.109,1.878,4.081,3.535c0.48,0.816,0.754,1.775,0.776,2.73c0.012,0.957-0.194,1.88-0.479,2.758
								c-0.623,1.738-1.589,3.282-2.638,4.719l-0.765,1.053c-0.245,0.355-0.533,0.713-0.71,1.061
								c-0.201,0.349-0.416,0.69-0.555,1.067c-0.074,0.184-0.17,0.365-0.227,0.55l-0.147,0.558
								c-0.145,0.742-0.144,1.479,0.127,2.166c0.273,0.685,0.702,1.334,1.226,1.938c1.053,1.208,2.338,2.289,3.551,3.409
								c1.225,1.115,2.415,2.262,3.505,3.467c1.084,1.212,2.05,2.489,2.914,3.787c1.684,2.628,2.839,5.38,3.586,7.988
								c0.743,2.612,1.155,5.074,1.327,7.258c0.125,1.092,0.153,2.115,0.184,3.061c0.053,0.947,0.03,1.814,0.015,2.598
								c0,1.57-0.11,2.794-0.162,3.63c-0.056,0.837-0.086,1.283-0.086,1.283l-2.478-0.255c0,0,0.04-0.429,0.114-1.234
								c0.071-0.805,0.21-1.986,0.247-3.491c0.035-0.753,0.079-1.586,0.051-2.491c-0.006-0.906-0.007-1.886-0.1-2.925
								c-0.109-2.086-0.44-4.422-1.075-6.893c-0.638-2.469-1.649-5.06-3.159-7.561c-0.779-1.235-1.654-2.46-2.653-3.638
								c-1.007-1.173-2.121-2.306-3.302-3.438c-1.172-1.145-2.439-2.254-3.582-3.632c-0.566-0.691-1.083-1.487-1.416-2.405
								c-0.34-0.93-0.324-1.981-0.105-2.915l0.204-0.692c0.077-0.225,0.189-0.429,0.283-0.644c0.178-0.436,0.434-0.827,0.68-1.225
								c0.239-0.419,0.512-0.735,0.772-1.091l0.803-1.047c1.046-1.355,1.995-2.802,2.598-4.363c0.27-0.785,0.462-1.592,0.468-2.396
								c-0.006-0.802-0.214-1.583-0.606-2.281c-0.784-1.415-2.207-2.436-3.668-3.258c-2.986-1.616-6.258-2.625-9.385-3.61
								c-1.576-0.475-3.125-0.942-4.642-1.4c-1.515-0.465-3.012-0.869-4.436-1.459c-2.849-1.148-5.099-3.277-6.267-5.68
								c-1.19-2.405-1.481-4.895-1.463-7.032c0.023-2.152,0.339-4.007,0.672-5.507c0.339-1.502,0.706-2.655,0.974-3.433
								C248.277,149.191,248.451,148.787,248.451,148.787z"/>
						</g>
					</g>
					<path style="fill:#6F96BD;" d="M271.833,337.269c0,0-17.144-9.871-32.211,7.273c-15.066,17.144-52.472,17.664-45.199,45.718
						c7.273,28.055,232.783,31.835,247.295,19.742c18.703-15.586-27.535-99.23-58.707-97.151
						C351.84,314.929,271.833,337.269,271.833,337.269z"/>
				</g>
				<g>
					<g>
						<g>
							
								<line style="fill:none;stroke:#965450;stroke-width:2.0781;stroke-miterlimit:10;" x1="262.447" y1="313.099" x2="246.11" y2="308.642"/>
							<g>
								<path style="fill:#FFAC9D;" d="M285.138,260.092c0,0-38.964,8.298-26.813,59.513c12.151,51.215,45.486,57.459,62.021,45.431
									c13.051-9.494,24.725-32.061,15.793-67.642C327.882,264.501,307.373,257.694,285.138,260.092z"/>
								<path style="fill:#EF998E;" d="M281.557,361.932c13.598,10.922,29.085,10.162,38.789,3.103
									c8.493-6.179,16.398-17.9,18.425-35.136C328.094,351.413,304.821,364.252,281.557,361.932z"/>
							</g>
						</g>
						<g>
							<path style="fill:#352C38;" d="M281.704,266.613c0,0,4.156,31.172,27.535,33.769c23.379,2.598,27.015-0.519,26.496,17.144
								c-0.52,17.664-15.586,49.875,9.352,50.394c24.937,0.52,15.066-55.07,37.926-55.07c22.859,0,56.109,56.628,56.109,56.628
								s27.015-16.625,9.352-46.757c-10.152-17.318-28.574-4.156-28.574-23.898s-19.223-1.559-14.547-15.066
								c4.676-13.508,29.094-38.445,4.156-58.707c-24.937-20.261-41.562,19.223-51.433,0.52
								c-9.871-18.703-31.401-27.021-46.757-18.703C298.848,213.621,277.548,230.246,281.704,266.613z"/>
							<g>
								<g>
									<path style="fill:#352C38;" d="M446.065,311.661c0,0-0.09-0.287-0.265-0.842c-0.16-0.56-0.452-1.375-0.875-2.415
										c-0.465-1.017-1.062-2.292-2.125-3.51c-1.031-1.234-2.713-2.24-4.79-2.342c-1.03-0.077-2.127,0.009-3.294,0.07
										c-1.154,0.036-2.455,0.104-3.706-0.458c-1.278-0.532-2.169-1.76-2.708-3.047c-0.547-1.305-0.88-2.724-1.094-4.19
										c-0.413-2.893-0.457-6.152-2.241-8.728c-0.867-1.263-2.258-2.074-3.874-2.176c-1.61-0.154-3.315,0.223-5.083,0.574
										c-0.894,0.168-1.801,0.377-2.85,0.343c-0.507,0.001-1.126-0.144-1.644-0.528c-0.565-0.4-0.748-1.039-0.887-1.577
										c-0.18-1.102,0.016-2.077,0.187-3.056c0.105-0.463,0.209-0.997,0.35-1.447c0.132-0.464,0.255-0.927,0.426-1.405
										c1.274-3.782,3.046-7.387,4.726-11.159c1.687-3.759,3.369-7.637,4.635-11.727c1.278-4.074,2.153-8.386,2.017-12.755
										c-0.172-4.348-1.474-8.717-4.081-12.366c-2.521-3.706-6.127-6.682-10.064-9.112c-0.501-0.337-1.005-0.595-1.507-0.84
										c-0.506-0.25-0.999-0.522-1.514-0.759c-1.065-0.407-2.112-0.885-3.223-1.143c-2.189-0.604-4.475-0.906-6.744-0.685
										c-4.564,0.373-8.868,2.444-12.81,5.015c-1.99,1.279-3.922,2.681-5.893,4.074c-1.978,1.383-3.984,2.792-6.294,3.856
										c-1.172,0.49-2.413,0.962-3.798,1.007c-1.349,0.069-2.822-0.207-3.969-0.951l-0.449-0.249l-0.392-0.309l-0.774-0.628
										c-0.455-0.461-0.887-0.942-1.303-1.427c-0.693-0.989-1.385-1.976-2.075-2.961c-5.229-7.638-12.923-13.401-21.355-15.973
										c-4.205-1.297-8.579-1.765-12.777-1.368c-4.196,0.401-8.211,1.736-11.596,3.9c-6.916,4.355-12.566,9.84-16.691,15.652
										c-0.551,0.704-1.014,1.455-1.468,2.201c-0.461,0.742-0.917,1.475-1.368,2.201c-0.763,1.526-1.586,2.983-2.243,4.471
										c-0.311,0.752-0.618,1.495-0.92,2.228c-0.299,0.734-0.626,1.448-0.827,2.195c-0.437,1.479-0.954,2.894-1.291,4.308
										c-0.305,1.424-0.599,2.801-0.884,4.131c-0.212,1.343-0.332,2.652-0.493,3.903c-0.069,0.627-0.163,1.24-0.207,1.843
										c-0.018,0.605-0.035,1.197-0.052,1.775c-0.034,1.158-0.066,2.262-0.097,3.31c0.041,2.095,0.208,3.965,0.275,5.595
										c0.019,0.818,0.125,1.565,0.227,2.249c0.095,0.685,0.181,1.308,0.258,1.866c0.309,2.233,0.474,3.424,0.474,3.424
										s-0.203-1.185-0.585-3.407c-0.095-0.556-0.202-1.177-0.32-1.861c-0.125-0.683-0.255-1.429-0.301-2.247
										c-0.126-1.631-0.343-3.505-0.432-5.612c0.005-1.055,0.01-2.167,0.016-3.333c0.003-0.584,0.006-1.181,0.009-1.791
										c0.03-0.609,0.109-1.229,0.163-1.863c0.132-1.266,0.221-2.593,0.403-3.956c0.255-1.354,0.52-2.757,0.793-4.206
										c1.333-5.728,3.692-12.119,7.911-18.092c4.129-6.004,9.818-11.695,16.832-16.259c3.554-2.347,7.802-3.83,12.237-4.319
										c4.442-0.509,9.058,0.013,13.477,1.338c8.859,2.654,16.924,8.644,22.423,16.587c0.672,0.95,1.345,1.902,2.019,2.856
										c0.36,0.411,0.728,0.816,1.105,1.2l0.617,0.491l0.307,0.246l0.337,0.177c1.751,1.089,3.93,0.768,5.963-0.176
										c2.043-0.95,3.991-2.312,5.935-3.691c1.945-1.387,3.896-2.827,5.951-4.151c4.08-2.631,8.719-4.879,13.777-5.27
										c2.51-0.229,5.047,0.114,7.433,0.787c1.216,0.293,2.342,0.808,3.491,1.258c0.562,0.261,1.11,0.563,1.664,0.844
										c0.56,0.281,1.107,0.57,1.588,0.898c4.073,2.545,7.875,5.692,10.574,9.695c2.787,3.938,4.189,8.719,4.34,13.36
										c0.113,4.661-0.806,9.171-2.198,13.334c-1.365,4.185-3.131,8.089-4.88,11.84c-1.739,3.746-3.566,7.355-4.829,10.932
										c-0.165,0.434-0.298,0.905-0.437,1.366c-0.153,0.469-0.231,0.878-0.346,1.345c-0.177,0.886-0.345,1.813-0.221,2.579
										c0.092,1.555,2.249,1.137,3.934,0.832c1.76-0.317,3.564-0.708,5.409-0.511c0.91,0.101,1.841,0.331,2.635,0.823
										c0.783,0.483,1.484,1.115,1.946,1.864c0.994,1.471,1.413,3.102,1.687,4.675c0.275,1.57,0.32,3.081,0.501,4.517
										c0.173,1.435,0.465,2.808,0.947,4.039c0.481,1.221,1.238,2.301,2.332,2.787c1.073,0.522,2.309,0.507,3.45,0.494
										c1.154-0.031,2.277-0.094,3.345,0.012c1.066,0.098,2.074,0.382,2.911,0.855c0.834,0.474,1.523,1.075,2.032,1.728
										c1.051,1.287,1.606,2.59,2.042,3.628c0.392,1.061,0.657,1.884,0.799,2.449
										C445.984,311.371,446.065,311.661,446.065,311.661z"/>
								</g>
								<g>
									<path style="fill:#352C38;" d="M293.653,283.238c0,0-1.163-2.34-2.667-6.655c-1.473-4.314-3.376-10.598-4.49-18.377
										c-1.104-7.753-1.557-17.029,0.044-26.77c0.794-4.86,2.074-9.817,3.909-14.663c1.811-4.845,4.265-9.574,7.056-13.979
										c2.836-4.447,6.026-8.652,9.746-12.314c1.877-1.808,3.907-3.452,6.131-4.776c2.215-1.314,4.673-2.323,7.292-2.457
										c1.299-0.053,2.636,0.117,3.851,0.672c1.211,0.541,2.272,1.511,2.819,2.748c0.574,1.227,0.564,2.663,0.107,3.859
										c-0.446,1.204-1.241,2.214-2.171,2.956c-0.215,0.213-0.473,0.358-0.711,0.531l-0.363,0.249l-0.091,0.062l-0.07,0.045
										L324,194.393l-0.182,0.098l-0.726,0.391l-0.832,0.339c-0.564,0.194-1.143,0.326-1.761,0.333
										c-0.303,0.013-0.624-0.063-0.928-0.115c-0.294-0.13-0.616-0.203-0.861-0.423c-0.556-0.353-0.868-0.931-1.095-1.472
										c-0.18-0.561-0.269-1.129-0.255-1.678c0.019-1.098,0.275-2.135,0.669-3.073c1.613-3.781,4.755-6.168,7.689-7.425
										c2.967-1.297,5.8-1.633,8.079-1.698c2.294-0.058,4.083,0.188,5.289,0.371c1.203,0.215,1.845,0.329,1.845,0.329
										s-0.646-0.085-1.856-0.246c-1.21-0.135-3.001-0.275-5.265-0.152c-2.249,0.139-5.023,0.57-7.849,1.922
										c-2.797,1.31-5.694,3.716-7.117,7.222c-0.347,0.867-0.549,1.812-0.545,2.745c0,0.922,0.285,1.884,0.983,2.331
										c0.661,0.502,1.697,0.361,2.608,0.026l0.681-0.288l0.718-0.406c0.418-0.255,0.87-0.572,1.256-0.909
										c0.805-0.666,1.436-1.534,1.769-2.491c0.342-0.956,0.316-2.023-0.132-2.927c-0.432-0.907-1.234-1.637-2.206-2.07
										c-0.976-0.439-2.103-0.583-3.235-0.53c-2.286,0.127-4.563,1.054-6.642,2.312c-2.089,1.262-4.03,2.851-5.833,4.612
										c-3.573,3.56-6.691,7.735-9.431,12.083c-2.813,4.378-5.21,8.932-7.029,13.688c-1.831,4.737-3.121,9.593-3.934,14.366
										c-1.632,9.558-1.478,18.718-0.509,26.431c0.963,7.727,2.56,14.056,3.911,18.399
										C292.615,280.841,293.653,283.238,293.653,283.238z"/>
								</g>
								<g>
									<path style="fill:#352C38;" d="M284.821,254.664c0,0,0.002-0.662,0.064-1.903c0.064-1.24,0.179-3.062,0.473-5.365
										c0.288-2.303,0.72-5.094,1.407-8.262c0.682-3.167,1.643-6.712,3.068-10.455c1.418-3.741,3.268-7.703,5.794-11.575
										c2.509-3.868,5.765-7.638,9.879-10.642c4.083-3.028,8.975-5.267,14.19-6.403c5.217-1.159,10.688-1.252,16.034-0.678
										l3.989,0.592c1.316,0.258,2.615,0.581,3.92,0.868c2.596,0.563,5.116,1.279,7.651,1.863
										c5.033,1.186,10.058,2.146,14.934,2.878c4.881,0.712,9.626,1.23,14.139,1.405c4.509,0.173,8.791,0.062,12.681-0.48
										c1.94-0.285,3.797-0.611,5.51-1.101c0.873-0.199,1.677-0.518,2.483-0.77c0.77-0.329,1.544-0.608,2.228-0.998
										c1.387-0.727,2.613-1.605,3.378-2.693c0.784-1.073,0.928-2.385,0.436-3.373c-0.479-0.995-1.315-1.639-2.037-2.136
										c-0.379-0.228-0.751-0.41-1.082-0.594c-0.346-0.153-0.669-0.273-0.955-0.391c-0.569-0.244-1.042-0.329-1.344-0.435
										c-0.308-0.091-0.466-0.138-0.466-0.138s0.161,0.037,0.473,0.11c0.308,0.088,0.787,0.145,1.374,0.356
										c0.294,0.101,0.628,0.204,0.988,0.338c0.346,0.166,0.735,0.329,1.139,0.54c0.774,0.464,1.689,1.085,2.273,2.171
										c0.114,0.283,0.294,0.555,0.32,0.886c0.029,0.161,0.057,0.324,0.086,0.489c0.015,0.166-0.015,0.335-0.022,0.506
										c-0.024,0.692-0.328,1.364-0.705,1.988c-0.798,1.243-2.062,2.223-3.481,3.051c-2.856,1.687-6.475,2.676-10.423,3.349
										c-3.963,0.661-8.312,0.891-12.895,0.839c-4.585-0.054-9.412-0.422-14.353-1.135c-4.945-0.698-10.012-1.618-15.135-2.778
										c-2.549-0.564-5.092-1.261-7.656-1.792c-1.273-0.268-2.542-0.572-3.822-0.811l-3.868-0.543
										c-5.161-0.6-10.407-0.552-15.383,0.507c-4.975,1.038-9.623,3.116-13.537,5.963c-3.914,2.849-7.159,6.342-9.693,10.035
										c-2.55,3.688-4.469,7.517-5.961,11.158c-2.963,7.308-4.389,13.801-5.161,18.349
										C284.976,252.014,284.821,254.664,284.821,254.664z"/>
								</g>
							</g>
							<g>
								<path style="fill:#352C38;" d="M394.961,312.851c-2.145-1.569-4.36-3.071-6.778-4.188c-2.39-1.105-5.112-1.818-7.732-1.214
									c-2.626,0.582-4.752,2.46-6.291,4.593c-1.561,2.155-2.689,4.59-3.632,7.07c-0.935,2.489-1.68,5.047-2.307,7.63
									c-0.636,2.582-1.126,5.199-1.704,7.796c-1.126,5.201-2.306,10.394-3.743,15.523c-1.461,5.111-3.091,10.226-5.655,14.928
									c-1.298,2.323-2.856,4.579-5.005,6.239c-1.074,0.814-2.298,1.468-3.623,1.787c-1.32,0.34-2.71,0.344-4.044,0.118
									c-2.681-0.48-5.103-1.799-7.3-3.307c-2.191-1.521-4.293-3.317-5.661-5.692c-0.684-1.178-1.117-2.511-1.258-3.871
									c-0.145-1.363,0.003-2.738,0.316-4.052c0.632-2.639,1.808-5.071,2.99-7.455c2.411-4.749,4.949-9.432,6.569-14.473
									c0.829-2.514,1.406-5.078,1.787-7.711c0.378-2.602,0.638-5.256,0.406-7.85c-0.209-2.587-1.137-5.118-2.991-6.896
									c-1.826-1.806-4.28-2.883-6.749-3.736c-5.006-1.635-10.273-2.507-15.499-3.433c-2.618-0.457-5.247-0.87-7.876-1.282
									c-2.605-0.383-5.319-0.85-7.886-1.743c-2.571-0.872-5.07-2.045-7.327-3.624c-2.262-1.574-4.234-3.554-5.921-5.75
									c-1.678-2.207-3.009-4.673-4.024-7.249c-1.049-2.566-1.799-5.25-2.305-7.969c-0.531-2.718-0.839-5.476-0.973-8.247
									c-0.075-1.386-0.102-2.777-0.08-4.174c0.013-1.422,0.04-2.75,0.202-4.303l5.838,1.14v0.001
									c-0.234,1.145-0.435,2.503-0.59,3.779c-0.159,1.297-0.277,2.605-0.363,3.915c-0.171,2.62-0.198,5.252-0.071,7.87
									c0.264,5.229,1.146,10.432,2.965,15.267c0.914,2.412,2.061,4.724,3.467,6.865c1.416,2.132,3.078,4.098,4.994,5.801
									c3.814,3.436,8.588,5.789,13.678,7.123c2.545,0.678,5.169,1.119,7.821,1.373c1.326,0.126,2.66,0.219,3.999,0.247
									c1.293,0.047,2.788,0.018,4.213,0.252c1.43,0.225,2.887,0.563,4.273,1.376c0.683,0.41,1.349,0.994,1.796,1.773
									c0.461,0.775,0.595,1.712,0.507,2.527c-0.069,0.818-0.361,1.587-0.636,2.219c-0.285,0.659-0.599,1.298-0.952,1.918
									c-0.706,1.239-1.557,2.406-2.577,3.425c-1.022,1.011-2.202,1.898-3.605,2.431c-0.705,0.248-1.464,0.453-2.347,0.281
									c-0.426-0.085-0.957-0.364-1.197-0.885c-0.234-0.513-0.152-1.012-0.032-1.398c0.266-0.785,0.726-1.361,1.196-1.902
									c0.452-0.523,1.107-1.083,1.874-1.293c0.778-0.234,1.633-0.083,2.294,0.28c0.673,0.359,1.204,0.881,1.647,1.444
									c1.713,2.298,2.27,5.265,1.745,7.989c-0.275,1.362-0.867,2.66-1.736,3.73c-0.866,1.074-1.984,1.919-3.204,2.524
									c1.194-0.658,2.262-1.546,3.063-2.634c0.804-1.085,1.318-2.365,1.526-3.685c0.399-2.631-0.297-5.464-1.948-7.474
									c-0.807-0.98-2.041-1.713-3.124-1.32c-0.548,0.192-0.973,0.559-1.388,1.077c-0.402,0.497-0.767,1.047-0.912,1.57
									c-0.072,0.258-0.06,0.489,0.008,0.598c0.059,0.107,0.19,0.193,0.425,0.234c0.47,0.077,1.091-0.073,1.646-0.31
									c1.135-0.489,2.157-1.316,3.023-2.26c0.869-0.951,1.592-2.041,2.183-3.198c0.296-0.58,0.557-1.179,0.786-1.782
									c0.24-0.626,0.396-1.167,0.416-1.715c0.069-1.086-0.495-1.855-1.498-2.396c-1.003-0.527-2.266-0.785-3.528-0.91
									c-1.284-0.145-2.524-0.044-3.956-0.033c-1.388,0.033-2.781,0-4.173-0.07c-2.785-0.14-5.577-0.479-8.334-1.081
									c-2.755-0.604-5.479-1.465-8.083-2.654c-2.591-1.208-5.087-2.698-7.316-4.543c-2.247-1.823-4.236-3.967-5.943-6.305
									c-1.698-2.346-3.103-4.888-4.241-7.528c-2.268-5.294-3.474-10.933-4.015-16.567c-0.265-2.822-0.363-5.652-0.306-8.481
									c0.029-1.414,0.093-2.829,0.202-4.245c0.114-1.437,0.243-2.788,0.483-4.328l0.001-0.003l5.838,1.14
									c-0.322,1.064-0.612,2.38-0.844,3.607c-0.216,1.253-0.389,2.521-0.518,3.795c-0.237,2.548-0.279,5.121-0.096,7.677
									c0.206,2.552,0.638,5.087,1.357,7.54c0.752,2.44,1.796,4.792,3.181,6.939c2.752,4.319,7.059,7.575,11.948,9.36
									c2.449,0.911,4.995,1.411,7.641,1.86l7.862,1.397c5.235,0.963,10.508,1.863,15.622,3.566
									c2.523,0.893,5.085,2.015,7.064,3.988c2.014,1.948,3.001,4.746,3.195,7.436c0.224,2.715-0.061,5.4-0.462,8.051
									c-0.397,2.632-1.007,5.274-1.862,7.81c-1.676,5.105-4.269,9.814-6.698,14.527c-1.191,2.365-2.364,4.762-2.988,7.308
									c-0.659,2.524-0.484,5.274,0.84,7.535c1.286,2.272,3.327,4.051,5.474,5.56c2.16,1.504,4.523,2.803,7.106,3.281
									c1.284,0.226,2.612,0.229,3.876-0.088c1.269-0.297,2.447-0.916,3.494-1.698c2.093-1.595,3.65-3.806,4.949-6.1
									c2.571-4.643,4.234-9.738,5.724-14.831c1.465-5.112,2.686-10.294,3.832-15.489c0.584-2.595,1.081-5.21,1.725-7.795
									c0.635-2.585,1.388-5.144,2.331-7.635c0.952-2.482,2.088-4.92,3.66-7.078c1.548-2.136,3.691-4.019,6.332-4.597
									c2.634-0.6,5.36,0.124,7.75,1.235C390.609,309.769,392.82,311.276,394.961,312.851z"/>
							</g>
						</g>
					</g>
					<g>
						<g>
							<path style="fill:#1A141C;" d="M280.037,320.215c0.51,3.644-0.132,6.746-1.434,6.928c-1.301,0.182-2.77-2.625-3.28-6.269
								c-0.51-3.644,0.132-6.746,1.434-6.928C278.059,313.764,279.527,316.571,280.037,320.215z"/>
							<path style="fill:#1A141C;" d="M312.616,319.522c0.51,3.644-0.132,6.746-1.434,6.928c-1.302,0.182-2.77-2.625-3.279-6.269
								c-0.51-3.644,0.132-6.746,1.434-6.928C310.638,313.071,312.106,315.878,312.616,319.522z"/>
							<g>
								<path style="fill:#FC6A5A;" d="M286.355,318.866c0.286,0.853,0.495,1.74,0.615,2.634c0.144,0.895,0.197,1.801,0.221,2.712
									c0.027,0.457-0.019,0.91-0.029,1.367c-0.006,0.458-0.072,0.911-0.11,1.369c-0.035,0.459-0.124,0.909-0.213,1.361
									c-0.089,0.452-0.159,0.909-0.292,1.353c-0.117,0.448-0.247,0.893-0.391,1.333l-0.504,1.301
									c-0.153,0.44-0.391,0.847-0.6,1.263c-0.217,0.414-0.428,0.83-0.704,1.211l-0.779,1.167
									c-0.291,0.367-0.614,0.709-0.919,1.062l-0.467,0.521l-0.52,0.47c-0.343,0.316-0.699,0.617-1.053,0.916l-0.153-1.35
									c1.045,0.634,2.073,1.302,3.095,1.98c1.01,0.701,2.025,1.392,2.992,2.173c-1.19-0.361-2.332-0.812-3.48-1.253
									c-1.136-0.463-2.266-0.938-3.378-1.446l-0.958-0.438l0.806-0.913c0.281-0.318,0.561-0.634,0.852-0.936l0.432-0.456
									l0.378-0.503c0.252-0.335,0.495-0.674,0.755-1l0.665-1.062c0.238-0.344,0.415-0.724,0.599-1.1
									c0.171-0.382,0.416-0.727,0.557-1.125l0.488-1.163l0.409-1.199c0.157-0.394,0.253-0.809,0.37-1.218
									c0.121-0.409,0.224-0.822,0.31-1.242c0.092-0.418,0.213-0.833,0.276-1.259l0.221-1.277
									C286.113,322.406,286.285,320.66,286.355,318.866z"/>
							</g>
							<g>
								<path style="fill:#FC6A5A;" d="M290.733,349.515c0,0,0.084-0.313,0.358-0.806c0.132-0.25,0.315-0.542,0.553-0.86
									c0.245-0.312,0.529-0.67,0.911-0.993c0.353-0.357,0.819-0.663,1.33-0.955c0.27-0.128,0.547-0.259,0.83-0.393
									c0.294-0.115,0.616-0.17,0.936-0.255c0.321-0.1,0.657-0.107,0.999-0.128c0.34-0.007,0.697-0.074,1.034,0.007
									c0.341,0.053,0.689,0.101,1.034,0.167c0.347,0.059,0.653,0.217,0.983,0.323c0.315,0.134,0.657,0.23,0.945,0.4
									c0.286,0.174,0.571,0.346,0.854,0.518c0.591,0.315,1.042,0.768,1.504,1.168c0.227,0.205,0.46,0.395,0.668,0.602
									c0.207,0.206,0.374,0.438,0.555,0.647c0.358,0.42,0.674,0.833,0.962,1.213c0.294,0.375,0.485,0.776,0.683,1.108
									c0.196,0.333,0.348,0.635,0.476,0.88c0.254,0.492,0.377,0.784,0.377,0.784s-0.269-0.184-0.7-0.526
									c-0.214-0.172-0.478-0.376-0.76-0.624c-0.294-0.236-0.592-0.533-0.953-0.812c-0.367-0.273-0.76-0.568-1.152-0.897
									c-0.384-0.345-0.838-0.629-1.288-0.936c-0.446-0.315-0.908-0.64-1.406-0.876l-0.733-0.402
									c-0.242-0.142-0.509-0.196-0.76-0.302c-0.255-0.086-0.502-0.231-0.761-0.273c-0.259-0.045-0.514-0.107-0.77-0.164
									c-0.255-0.083-0.509-0.043-0.762-0.076c-0.253-0.016-0.508-0.051-0.75,0.002c-0.248,0.029-0.492,0.058-0.731,0.086
									c-0.238,0.06-0.471,0.118-0.698,0.176c-0.235,0.046-0.434,0.174-0.652,0.242c-0.22,0.07-0.424,0.16-0.611,0.268
									c-0.782,0.378-1.397,0.827-1.832,1.146C290.971,349.298,290.733,349.515,290.733,349.515z"/>
							</g>
							<g>
								<path style="fill:#1A141C;" d="M282.357,296.593c0,0,0.125,0.479,0.167,1.339c0.037,0.432,0.028,0.951,0.008,1.555
									c-0.063,0.592-0.074,1.288-0.251,2.011c-0.076,0.368-0.154,0.75-0.236,1.147c-0.12,0.388-0.245,0.789-0.372,1.202
									c-0.115,0.421-0.307,0.823-0.493,1.242c-0.192,0.416-0.368,0.854-0.612,1.267c-0.502,0.815-0.993,1.692-1.691,2.44
									c-0.343,0.375-0.632,0.811-1.03,1.142l-1.172,1.023c-0.381,0.357-0.832,0.617-1.269,0.89
									c-0.436,0.277-0.881,0.534-1.318,0.793c-0.92,0.421-1.857,0.77-2.751,1.096c-0.93,0.211-1.829,0.389-2.675,0.544
									c-0.852,0.114-1.67,0.079-2.409,0.1c-0.371,0.002-0.723,0.014-1.058,0.007c-0.335-0.017-0.653-0.086-0.95-0.122
									c-0.593-0.079-1.106-0.181-1.525-0.258c-0.838-0.159-1.304-0.286-1.304-0.286s0.481-0.145,1.301-0.334
									c0.41-0.092,0.903-0.213,1.464-0.313c0.564-0.082,1.182-0.273,1.847-0.469c0.661-0.209,1.387-0.367,2.119-0.615
									c0.72-0.29,1.472-0.581,2.251-0.855c0.727-0.373,1.478-0.758,2.241-1.149c0.351-0.24,0.699-0.487,1.06-0.716
									c0.359-0.232,0.731-0.449,1.036-0.753l0.984-0.823c0.333-0.267,0.596-0.608,0.897-0.905c0.621-0.582,1.095-1.278,1.62-1.91
									c0.26-0.319,0.446-0.682,0.681-1.006c0.227-0.33,0.447-0.655,0.625-0.996c0.193-0.336,0.381-0.662,0.563-0.978
									c0.165-0.329,0.325-0.646,0.479-0.951c0.319-0.612,0.538-1.206,0.788-1.723c0.187-0.531,0.413-0.993,0.54-1.386
									C282.211,297.064,282.357,296.593,282.357,296.593z"/>
							</g>
							<g>
								<path style="fill:#1A141C;" d="M297.016,300.4c0,0,0.09,0.1,0.26,0.289c0.158,0.188,0.438,0.436,0.758,0.757
									c0.34,0.31,0.757,0.669,1.25,1.055c0.235,0.203,0.509,0.392,0.802,0.584c0.298,0.186,0.559,0.432,0.898,0.613
									c0.324,0.193,0.661,0.395,1.01,0.603c0.36,0.185,0.732,0.376,1.115,0.573c0.189,0.098,0.38,0.198,0.574,0.299
									c0.204,0.084,0.41,0.169,0.618,0.255c0.412,0.174,0.832,0.353,1.26,0.534c0.904,0.259,1.768,0.666,2.737,0.868
									c0.474,0.125,0.954,0.241,1.429,0.379c0.477,0.131,0.981,0.188,1.471,0.286l1.472,0.293c0.499,0.06,0.997,0.119,1.49,0.178
									c0.494,0.059,0.983,0.126,1.468,0.199c0.491,0.034,0.975,0.068,1.451,0.1c0.956,0.044,1.881,0.205,2.768,0.192
									c0.886,0.018,1.73,0.064,2.514,0.11c0.784,0.057,1.504,0.04,2.147,0.055c0.641,0,1.207,0.032,1.674,0.052
									c0.935,0.043,1.482,0.103,1.482,0.103s-0.497,0.208-1.388,0.51c-0.446,0.149-0.988,0.338-1.619,0.519
									c-0.63,0.187-1.339,0.428-2.137,0.544c-0.793,0.152-1.658,0.313-2.579,0.453c-0.918,0.173-1.907,0.161-2.926,0.226
									c-0.511,0.024-1.03,0.048-1.557,0.046c-0.528-0.026-1.062-0.059-1.601-0.101c-0.539-0.042-1.082-0.085-1.628-0.128
									l-1.63-0.294c-0.541-0.118-1.088-0.194-1.621-0.348c-0.529-0.165-1.057-0.33-1.58-0.493l-0.778-0.25l-0.746-0.329
									c-0.49-0.223-0.975-0.443-1.451-0.66c-0.46-0.254-0.905-0.52-1.335-0.784c-0.435-0.253-0.848-0.522-1.221-0.833
									c-0.377-0.302-0.758-0.567-1.092-0.872c-0.323-0.316-0.634-0.622-0.933-0.916c-0.576-0.604-1.063-1.194-1.433-1.761
									c-0.395-0.544-0.662-1.072-0.878-1.498C297.123,300.936,297.016,300.4,297.016,300.4z"/>
							</g>
						</g>
						<g>
							<path style="fill:#FFAC9D;" d="M351.86,293.212c-3.255-0.171-2.422,5.354-3.656,7.17c4.676,9.352,0.735,21.126,1.13,21.925
								C360.821,319.747,361.231,293.705,351.86,293.212z"/>
							<g>
								
									<ellipse transform="matrix(0.2891 -0.9573 0.9573 0.2891 -106.6637 480.2217)" style="fill:none;stroke:#965450;stroke-width:2.0781;stroke-miterlimit:10;" cx="269.987" cy="311.924" rx="23.891" ry="18.656"/>
								
									<ellipse transform="matrix(0.2891 -0.9573 0.9573 0.2891 -88.596 530.4131)" style="fill:none;stroke:#965450;stroke-width:2.0781;stroke-miterlimit:10;" cx="312.813" cy="324.856" rx="23.891" ry="18.656"/>
								<path style="fill:none;stroke:#965450;stroke-width:1.039;stroke-miterlimit:10;" d="M286.555,320.606
									c0,0,5.715-5.433,7.469,3.25"/>
								<path style="fill:none;stroke:#965450;stroke-width:2.0781;stroke-miterlimit:10;" d="M331.243,330.248l6.891,0.991
									c0,0,8.553-38.636,14.087-38.644c3.775-0.006,5.853,8.306,5.853,8.306"/>
							</g>
						</g>
					</g>
				</g>
				<g>
					<path style="fill:#FFAC9D;" d="M268.196,362.726c0,0,169.366,6.234,176.639,38.965c4.99,22.453-69.617,19.223-122.608,3.637
						C269.235,389.741,268.196,362.726,268.196,362.726z"/>
					<g>
						<path style="fill:#EF998E;" d="M238.583,368.44c0,0-41.02-4.051-45.199,16.105c-5.358,25.843,36.886,34.808,138.194,33.25
							c101.308-1.559,72.734-4.676,45.199-6.754c0,0,73.253,3.637,2.598-6.754c0,0,64.941,6.754,0.52-5.195
							c0,0,60.265,7.273-9.871-6.754c0,0-7.477,1.461-18.703-1.559C323.757,383.365,272.178,371.763,238.583,368.44z"/>
						<path style="fill:#EF998E;" d="M352.879,390.26c0,0,61.824-8.832,14.027,5.195C319.11,409.483,352.879,390.26,352.879,390.26z
							"/>
					</g>
					<path style="fill:#FFAC9D;" d="M323.266,378.311c0,0-53.381-21.458-62.482-14.865c-9.102,6.594-29.691,38.591,1.261,5.67
						c0,0-18.061,56.855,5.414,5.508c0,0-4.604,55.291,5.791,1.854c0,0,11.766,48.414,6.769,0.256l60.745,11.15L323.266,378.311z"/>
				</g>
			</g>
			<path style="fill:none;stroke:#FC6A5A;stroke-width:1.8773;stroke-miterlimit:10;" d="M317.018,97.609
				c-16.745-1.206-54.803,0.402-58.356,17.286c-4.059,16.482,30.954,14.874,44.147,13.266c10.149-1.206,38.058-11.658,17.253-18.492
				c-10.656-3.618-38.058,3.618-45.162,10.854c-28.417,28.944,51.759,25.728,48.714,15.678c-4.06-14.472-73.071,8.844-37.043,20.904
				c9.134,3.216,37.551-2.01,18.775-6.834c-15.731-3.618-24.865,11.658-14.208,19.698"/>
		</g>
		<g>
			<g>
				<polygon style="fill:#352C38;" points="104.298,419 225.167,419 179.432,335.698 58.563,335.698 				"/>
				<rect x="208.425" y="410.017" style="fill:#352C38;" width="84.118" height="8.983"/>
			</g>
			<polygon style="fill:#765E69;" points="96.131,419 217,419 171.266,335.698 50.396,335.698 			"/>
		</g>
	</g>
</g>
</svg>
